<?xml version="1.0" encoding="iso-8859-1"?>
<!-- Generator: Adobe Illustrator 19.0.0, SVG Export Plug-In . SVG Version: 6.00 Build 0)  -->
<svg version="1.1" id="Capa_1" xmlns="http://www.w3.org/2000/svg" xmlns:xlink="http://www.w3.org/1999/xlink" x="0px" y="0px"
	 viewBox="0 0 490.667 490.667" style="enable-background:new 0 0 490.667 490.667;" xml:space="preserve">
<path style="fill:#2196F3;" d="M484.075,22.149c-3.985-1.654-8.574-0.745-11.627,2.304L245.333,251.589L18.219,24.453
	c-4.16-4.171-10.914-4.179-15.085-0.019C1.123,26.44-0.005,29.165,0,32.005v192c-0.005,2.831,1.115,5.548,3.115,7.552
	l234.667,234.667c4.165,4.164,10.917,4.164,15.083,0l234.667-234.667c2.007-2.001,3.135-4.718,3.136-7.552v-192
	C490.666,27.689,488.064,23.798,484.075,22.149z"/>
<path d="M245.333,469.339c-2.831,0.005-5.548-1.115-7.552-3.115L3.115,231.557c-1.999-2.004-3.12-4.721-3.115-7.552v-192
	C-0.011,26.114,4.757,21.33,10.648,21.32c2.84-0.005,5.565,1.123,7.571,3.134l227.115,227.136L472.448,24.453
	c4.16-4.171,10.914-4.179,15.085-0.019c2.011,2.006,3.139,4.731,3.134,7.571v192c0.005,2.831-1.115,5.548-3.115,7.552
	L252.885,466.224C250.881,468.223,248.164,469.344,245.333,469.339z M21.333,219.589l224,224l224-224V57.755L252.885,274.224
	c-4.165,4.164-10.917,4.164-15.083,0L21.333,57.755V219.589z"/>
<g>
</g>
<g>
</g>
<g>
</g>
<g>
</g>
<g>
</g>
<g>
</g>
<g>
</g>
<g>
</g>
<g>
</g>
<g>
</g>
<g>
</g>
<g>
</g>
<g>
</g>
<g>
</g>
<g>
</g>
</svg>
