<svg height="512" viewBox="0 0 512 512" width="512" xmlns="http://www.w3.org/2000/svg"><g><g fill="#57a4ff"><path d="m292 168h-72a12 12 0 0 0 -12 12v72a12 12 0 0 0 12 12h72a12 12 0 0 0 12-12v-72a12 12 0 0 0 -12-12zm-52 72v-48l40 24z"/><path d="m164 168h-72a12 12 0 0 0 -12 12v72a12 12 0 0 0 12 12h72a12 12 0 0 0 12-12v-72a12 12 0 0 0 -12-12zm-52 72v-48l40 24z"/><path d="m420 168h-72a12 12 0 0 0 -12 12v72a12 12 0 0 0 12 12h72a12 12 0 0 0 12-12v-72a12 12 0 0 0 -12-12zm-52 72v-48l40 24z"/><path d="m292 296h-72a12 12 0 0 0 -12 12v72a12 12 0 0 0 12 12h72a12 12 0 0 0 12-12v-72a12 12 0 0 0 -12-12zm-52 72v-48l40 24z"/><path d="m164 296h-72a12 12 0 0 0 -12 12v72a12 12 0 0 0 12 12h72a12 12 0 0 0 12-12v-72a12 12 0 0 0 -12-12zm-52 72v-48l40 24z"/><path d="m420 296h-72a12 12 0 0 0 -12 12v72a12 12 0 0 0 12 12h72a12 12 0 0 0 12-12v-72a12 12 0 0 0 -12-12zm-52 72v-48l40 24z"/><path d="m476 64h-440a19.994 19.994 0 0 0 -20 20v28h480v-28a19.994 19.994 0 0 0 -20-20z"/></g><g fill="#004fac"><path d="m476 56h-440a28.031 28.031 0 0 0 -28 28v344a28.031 28.031 0 0 0 28 28h440a28.031 28.031 0 0 0 28-28v-344a28.031 28.031 0 0 0 -28-28zm12 372a12.01 12.01 0 0 1 -12 12h-440a12.01 12.01 0 0 1 -12-12v-308h464zm0-324h-464v-20a12.01 12.01 0 0 1 12-12h440a12.01 12.01 0 0 1 12 12z"/><path d="m40 96h8a8 8 0 0 0 0-16h-8a8 8 0 0 0 0 16z"/><path d="m72 96h8a8 8 0 0 0 0-16h-8a8 8 0 0 0 0 16z"/><path d="m104 96h8a8 8 0 0 0 0-16h-8a8 8 0 0 0 0 16z"/><path d="m284.116 209.14-40-24a8 8 0 0 0 -12.116 6.86v48a8 8 0 0 0 12.116 6.86l40-24a8 8 0 0 0 0-13.72zm-36.116 16.731v-19.742l16.451 9.871z"/><path d="m292 160h-72a20.023 20.023 0 0 0 -20 20v72a20.023 20.023 0 0 0 20 20h72a20.023 20.023 0 0 0 20-20v-72a20.023 20.023 0 0 0 -20-20zm4 92a4 4 0 0 1 -4 4h-72a4 4 0 0 1 -4-4v-72a4 4 0 0 1 4-4h72a4 4 0 0 1 4 4z"/><path d="m156.116 209.14-40-24a8 8 0 0 0 -12.116 6.86v48a8 8 0 0 0 12.116 6.86l40-24a8 8 0 0 0 0-13.72zm-36.116 16.731v-19.742l16.451 9.871z"/><path d="m164 160h-72a20.023 20.023 0 0 0 -20 20v72a20.023 20.023 0 0 0 20 20h72a20.023 20.023 0 0 0 20-20v-72a20.023 20.023 0 0 0 -20-20zm4 92a4 4 0 0 1 -4 4h-72a4 4 0 0 1 -4-4v-72a4 4 0 0 1 4-4h72a4 4 0 0 1 4 4z"/><path d="m412.116 209.14-40-24a8 8 0 0 0 -12.116 6.86v48a8 8 0 0 0 12.116 6.86l40-24a8 8 0 0 0 0-13.72zm-36.116 16.731v-19.742l16.451 9.871z"/><path d="m420 160h-72a20.023 20.023 0 0 0 -20 20v72a20.023 20.023 0 0 0 20 20h72a20.023 20.023 0 0 0 20-20v-72a20.023 20.023 0 0 0 -20-20zm4 92a4 4 0 0 1 -4 4h-72a4 4 0 0 1 -4-4v-72a4 4 0 0 1 4-4h72a4 4 0 0 1 4 4z"/><path d="m284.116 337.14-40-24a8 8 0 0 0 -12.116 6.86v48a8 8 0 0 0 12.116 6.86l40-24a8 8 0 0 0 0-13.72zm-36.116 16.731v-19.742l16.451 9.871z"/><path d="m292 288h-72a20.023 20.023 0 0 0 -20 20v72a20.023 20.023 0 0 0 20 20h72a20.023 20.023 0 0 0 20-20v-72a20.023 20.023 0 0 0 -20-20zm4 92a4 4 0 0 1 -4 4h-72a4 4 0 0 1 -4-4v-72a4 4 0 0 1 4-4h72a4 4 0 0 1 4 4z"/><path d="m156.116 337.14-40-24a8 8 0 0 0 -12.116 6.86v48a8 8 0 0 0 12.116 6.86l40-24a8 8 0 0 0 0-13.72zm-36.116 16.731v-19.742l16.451 9.871z"/><path d="m164 288h-72a20.023 20.023 0 0 0 -20 20v72a20.023 20.023 0 0 0 20 20h72a20.023 20.023 0 0 0 20-20v-72a20.023 20.023 0 0 0 -20-20zm4 92a4 4 0 0 1 -4 4h-72a4 4 0 0 1 -4-4v-72a4 4 0 0 1 4-4h72a4 4 0 0 1 4 4z"/><path d="m412.116 337.14-40-24a8 8 0 0 0 -12.116 6.86v48a8 8 0 0 0 12.116 6.86l40-24a8 8 0 0 0 0-13.72zm-36.116 16.731v-19.742l16.451 9.871z"/><path d="m420 288h-72a20.023 20.023 0 0 0 -20 20v72a20.023 20.023 0 0 0 20 20h72a20.023 20.023 0 0 0 20-20v-72a20.023 20.023 0 0 0 -20-20zm4 92a4 4 0 0 1 -4 4h-72a4 4 0 0 1 -4-4v-72a4 4 0 0 1 4-4h72a4 4 0 0 1 4 4z"/></g></g></svg>